<?xml version="1.0" encoding="utf-8"?>
<!-- Generator: Adobe Illustrator 19.0.0, SVG Export Plug-In . SVG Version: 6.00 Build 0)  -->
<svg version="1.1" id="Layer_2" xmlns="http://www.w3.org/2000/svg" xmlns:xlink="http://www.w3.org/1999/xlink" x="0px" y="0px"
	 viewBox="0 0 386 283" style="enable-background:new 0 0 386 283;" xml:space="preserve">
<style type="text/css">
	.st0{fill:#040505;}
	.st1{fill:url(#SVGID_1_);}
	.st2{fill:url(#SVGID_2_);}
	.st3{fill:url(#SVGID_3_);}
	.st4{fill:url(#SVGID_4_);}
	.st5{fill:url(#SVGID_5_);}
	.st6{fill:url(#SVGID_6_);}
</style>
<g>
	<path class="st0" d="M336.8,179.9c-0.5,13.9-13.2,25.8-27.5,25.8c-41.6,0-83.2,0-124.7,0c-35.4,0-70.8,0-106.1,0
		c-16,0-28.7-12.1-28.8-28.2c-0.2-43.8-0.2-87.7,0-131.5C49.7,30.8,61.2,18.9,76,17.9c-4.4,8.3-2.8,16.6-0.2,25
		c1.9,5.9,4.2,11.6,7.4,16.9c1.9,3.9,4.3,7.4,6.7,11c3.2,5,6.9,9.6,10.7,14.1c2.1,2.2,3.8,4.8,6.1,6.8c2.5,2.5,5,5,7.5,7.5
		c2.9,3.1,6.1,6,9.4,8.7c1.7,1.7,3.8,3,5.5,4.7c1.8,1.4,3.7,2.7,5.4,4.1c3,2.5,6.2,4.6,9.3,6.8c4.7,3.2,9.3,6.5,14.2,9.3
		c3.8,2.3,7.6,4.5,11.5,6.6c2.1,1.4,4.3,2.5,6.6,3.6c2.1,1.2,4.3,2.1,6.3,3.4c3.6,2.1,7.4,3.9,11.2,5.4c2.7,1.4,5.4,2.8,8.2,4
		c4.2,1.8,8.4,3.8,12.7,5.4c4.7,2.2,9.6,3.9,14.4,5.8c2.1,1,4.4,1.5,6.6,2.3c3.1,1.4,6.4,2.3,9.6,3.3c6.9,2.1,13.8,4.3,20.8,6
		c5.6,1.4,11.3,2.6,17,3.7c3.4,0.5,6.7,1.1,10.1,1.6c4.8,0.8,9.7,0.9,14.5,1.3c6.6,1.2,13.1-0.3,19.6-1.3
		C330.9,183.8,333.4,181,336.8,179.9z"/>
	<g>
		<g>
			<linearGradient id="SVGID_1_" gradientUnits="userSpaceOnUse" x1="72.3147" y1="102.1667" x2="336.9291" y2="102.1667">
				<stop  offset="0" style="stop-color:#007BBF"/>
				<stop  offset="1" style="stop-color:#094F9D"/>
			</linearGradient>
			<path class="st1" d="M336.8,141.5c0-10.8,0-21.6,0-32.5c0-0.5,0-0.9,0-1.4c0-7.9,0-15.8,0-23.7c0-10.8,0-21.6,0-32.5
				c0-2.4,0.3-4.7,0.1-7.1c-0.5-8.1-3.7-14.9-10.1-20c-2.5-1.9-5.3-3.4-8.1-4.7c0,0,0,0,0,0c-3-1.5-6.2-2.1-9.6-1.9
				c-7,0-14,0-20.9,0c-4.6,0-9.2,0-13.8-0.1c-1.4,0-1.9,0.4-1.9,1.9c0.1,8.4,0.1,16.8,0.2,25.2h0l0,0c0,13.1,0,26.1,0,39.2
				c-0.5,1.6,0,2.7,1.3,3.8c1.4,1.1,2.5,2.5,2.8,4.3c1.1,4.2-1,7-4.2,9.2l0,0c-2.7,0.5-5.4,1.5-7.9-0.5c-4.8-3.9-5.2-11.2,0.6-14.3
				c0.5-0.2,0.6-0.6,0.6-1.1c0-21.9,0-43.9,0-65.8c0-1.9-0.9-1.9-2.3-1.9c-4.3,0-8.6,0.2-12.8-0.1c-2.9-0.2-3.5,0.8-3.5,3.5
				c0.1,25.7,0.1,51.3,0.1,77c0,0.3,0,0.6,0,0.9c0,0.3,0,0.5,0,0.8c0,0.5,0,1,0.1,1.5c0,0.6,0.1,1.2,0.2,1.8
				c1.5,1.8,3.6,3.1,4.1,5.6c0.6,3.1,0,5.8-2.4,8c-2.9,2.7-6.3,2.5-9.7,1.1c-1.1-1.6-3.5-2.3-3.6-4.8c0-1.6,0-3.1,0-4.7
				c0.1-2.2,1.6-3.5,3.1-4.5c1.1-0.7,1.2-1.4,1.2-2.4c0-4-0.1-8.1-0.1-12.1c0-6.8,0-13.5,0-20.3c0-9,0-18,0-27
				c0-6.1,0.1-12.3,0.1-18.4c0-6.2,0-6.2-6.2-5.8c-3.1,0-6.3,0.1-9.4-0.2c-2.6-0.2-3.2,0.6-3.2,3.2c0.1,18.7,0.1,37.5,0.1,56.2
				c-0.1,1.5-0.1,3,0,4.5c0,0.8,0,1.6,0,2.3c0,0.9-0.3,1.8,0.4,2.6c0,0,0,0,0,0c2.5,1.9,4.1,4.2,4.3,7.2c-0.1,0.6-0.1,1.2,0,1.8
				c-0.7,2.4-2.1,4.3-4.2,5.7c-5.5,1.7-8.6,0.6-11.5-4.3c-1.2-3.8-0.3-7.4,2.8-9.7c1-0.7,1.5-1.3,1.5-2.6c-0.1-4-0.1-8.1-0.2-12.1
				c0-5,0-9.9,0-14.9c0-8.3,0-16.7,0-25c0-4.3,0-8.6,0.2-12.8c0.1-1.6-0.5-2.1-2.1-2.1c-4.5,0.1-9,0.1-13.5,0
				c-1.6,0-2.1,0.4-2.1,2.1c0.1,14,0.1,27.9,0.1,41.9c-0.5,1.3,0.8,1.3,1.4,1.9c2.2,2.1,3.6,4.5,2.8,7.7c-1.4,5.6-5.3,7.6-11.6,6
				c-5.8-4.9-5.8-9.5-0.1-14.7v0c0.7-0.5,0.5-1.2,0.5-1.8c0-13.7,0-27.3,0-41c0-0.6,0.3-1.4-0.6-1.7c-0.4,0-0.9,0-1.3-0.1
				c-2.7,0-5.4,0-8.1,0c-2.7,0-5.4,0-8.1,0c-4.5,0-9,0-13.5,0c-3.6,0-7.2,0-10.8,0c-3.6,0-7.2,0-10.8,0c-5.9,0-11.7,0-17.6,0
				c-4.3,0-8.6,0-12.8,0c-5.4,0-10.8,0-16.2,0c-4.7,0-9.3,0-14,0c-2,1.6-3.3,3.7-3.5,6.3c-0.6,6.6,0.2,13.1,2.7,19.3l0,0
				c1.8,5.9,3.9,11.7,7.4,16.9l0,0v0c1.8,3.9,4,7.5,6.6,10.8v0c3.1,5.1,6.8,9.9,10.8,14.3l0,0c1.8,2.4,3.6,4.9,6,6.7c0,0,0,0,0,0
				c2.2,2.7,4.7,5.2,7.4,7.5c0,0,0,0,0,0c3,3.2,6.2,6.2,9.6,8.8c0,0,0,0,0,0c1.5,1.9,3.6,3.2,5.5,4.6c1.8,1.4,3.5,2.7,5.3,4.1l0,0
				c2.9,2.6,6.1,4.9,9.5,6.9c0,0,0,0,0,0c4.5,3.5,9.2,6.7,14.3,9.3c3.6,2.6,7.5,4.7,11.4,6.7c2,1.6,4.3,2.8,6.7,3.5
				c1.9,1.4,4,2.4,6.2,3.3c0,0,0,0,0,0l0,0c3.5,2.2,7.3,4.1,11.2,5.5c0,0,0,0,0,0c2.6,1.6,5.4,3,8.4,3.9c0,0,0,0,0,0
				c4.1,2.1,8.2,4.2,12.6,5.5c0,0,0,0,0,0c4.6,2.4,9.5,4.1,14.4,5.9c2.1,1,4.2,1.9,6.6,2.2c0,0,0,0,0,0c3.1,1.6,6.3,2.6,9.6,3.3l0,0
				c6.8,2.6,13.8,4.7,20.9,6.1c5.5,1.9,11.2,3,17,3.9h0c0,0,0,0,0,0c3.3,0.7,6.6,1.6,10.1,1.5c0,0,0,0,0,0c4.9,1.2,9.8,1.5,14.8,1.4
				c0.4,0.1,0.9,0.2,1.3,0.2c0.7,0.1,1.3,0.2,1.8,0.2c5.8,0.4,11.6-0.3,17.3-1.8c3.5-0.5,6.3-2.3,8.8-4.8c0-3.8,0-7.6,0-11.3
				C336.8,159.5,336.8,150.5,336.8,141.5z M247.8,90.8c0,0.1-0.1,0.2-0.1,0.2c0-0.1,0-0.1,0-0.2C247.7,90.8,247.8,90.8,247.8,90.8z
				 M222,72.4C222,72.5,222.1,72.5,222,72.4c0.1,0.1,0,0.1,0,0.1C222,72.5,222,72.5,222,72.4z"/>
			<linearGradient id="SVGID_2_" gradientUnits="userSpaceOnUse" x1="239.5107" y1="110.7812" x2="247.8763" y2="110.7812">
				<stop  offset="0" style="stop-color:#007BBF"/>
				<stop  offset="1" style="stop-color:#094F9D"/>
			</linearGradient>
			<path class="st2" d="M239.5,110.9c0.2,1.8,1.1,3.4,3.3,3.6c1.8,0.8,3.2,0,4.2-1.4c1.1-1.5,1.3-3.2-0.2-4.7c0,0,0,0,0,0
				c0,0,0,0,0,0c-1.2-2.2-3.3-1.8-5-1.2C240.4,107.7,239.3,109.3,239.5,110.9z"/>
			<linearGradient id="SVGID_3_" gradientUnits="userSpaceOnUse" x1="189.409" y1="69.9526" x2="197.5202" y2="69.9526">
				<stop  offset="0" style="stop-color:#007BBF"/>
				<stop  offset="1" style="stop-color:#094F9D"/>
			</linearGradient>
			<path class="st3" d="M190,71.9c0.2,0.8,0.6,1.2,1.4,1.3c0,0,0,0,0,0c0,0,0,0,0,0c2.2,1.5,4.1,0.7,5.4-1.3c1.3-2,0.9-4-1.3-5.4
				c-0.7-0.2-1.4-0.4-2-0.7C189.6,66.5,188.6,68.2,190,71.9z"/>
			<linearGradient id="SVGID_4_" gradientUnits="userSpaceOnUse" x1="264.9624" y1="94.0143" x2="273.0559" y2="94.0143">
				<stop  offset="0" style="stop-color:#007BBF"/>
				<stop  offset="1" style="stop-color:#094F9D"/>
			</linearGradient>
			<path class="st4" d="M265.8,96.2C265.8,96.2,265.8,96.2,265.8,96.2C265.8,96.2,265.8,96.2,265.8,96.2c1.1,1.3,2.1,2.7,4,1.4
				c2.9-0.6,3.8-2.3,2.8-5.1c0,0,0,0,0,0c-1.3-1.5-2.3-3.5-4.8-2.4C264.6,91.3,264.3,93.5,265.8,96.2z"/>
			<linearGradient id="SVGID_5_" gradientUnits="userSpaceOnUse" x1="213.9763" y1="93.9559" x2="222.19" y2="93.9559">
				<stop  offset="0" style="stop-color:#007BBF"/>
				<stop  offset="1" style="stop-color:#094F9D"/>
			</linearGradient>
			<path class="st5" d="M215,96.4c0.4,0.9,1.1,1.3,2.1,1.2c1.8,0.8,3.3,0.1,4.3-1.4c1.1-1.6,1.2-3.3-0.2-4.8c-1-1.6-2.3-1.9-4-1.3
				C213.7,91.6,213.2,93,215,96.4z"/>
		</g>
		<linearGradient id="SVGID_6_" gradientUnits="userSpaceOnUse" x1="24.6251" y1="236.0744" x2="362.6548" y2="236.0744">
			<stop  offset="0" style="stop-color:#007BBF"/>
			<stop  offset="1" style="stop-color:#094F9D"/>
		</linearGradient>
		<path class="st6" d="M359.8,245.6c-2.9-3.4-6.1-6.5-9.5-9.5c0,0,0,0,0,0c-3.4-3.7-6.9-7.2-10.7-10.4c-2.9-2.7-5.9-5.4-8.8-8.1h0
			c-1.8-1.8-3.4-3.9-6.3-3.9c-2.9,0-5.8,0.1-8.7,0.1c-8.1,0-16.2,0-24.3,0c-7,0-14,0-21,0c-9.9,0-19.8,0-29.7,0c-8.3,0-16.7,0-25,0
			c-6.5,0-13.1,0-19.6,0c-14,0-27.9,0-41.9,0c-5.6,0-11.3,0-16.9,0c0,0,0,0,0,0c0,0,0,0,0,0c-11.5,0-23,0-34.5,0
			c-9.2,0-18.5,0-27.7,0c-4.1,0-8.3-0.1-12.4-0.2c-1.1,0-2,0.3-2.8,1c-2.5,2.1-5.2,3.9-7.2,6.5c-9.7,8.4-18.5,17.6-27.5,26.7
			c-0.5,0.5-0.7,1-0.7,1.8c0.2,5.6,3.7,9,9.3,8.7c0,0,0,0,0,0c0,0,0,0,0,0c4.5,0,9,0,13.5,0c5,0,9.9,0,14.9,0c5.6,0,11.3,0,16.9,0
			c7,0,14,0,21,0c4.5,0,9,0,13.5,0c5.6,0,11.3,0,16.9,0c10.1,0,20.3,0,30.4,0c6.1,0,12.2,0,18.3,0c9,0,18,0,27.1,0
			c6.8,0,13.5,0,20.3,0c7,0,14,0,20.9,0c6.3,0,12.6,0,18.9,0c8.6,0,17.1,0,25.7,0c5.6,0,11.3,0,16.9,0c4.3,0,8.6,0,12.9,0l0,0v0
			c5.6,0,11.3,0,16.9,0c5,0,9.9,0,14.9,0c5.1,0.3,6.3-0.4,8-4.7C363,250.5,363.5,247.6,359.8,245.6z M214.1,245
			c-0.4,0-0.7,0.3-0.9,0.6c-0.2-0.3-0.6-0.5-1-0.7c-8.9-0.5-17.9-0.6-26.8,0.1c-0.3,0.3-0.5,0.5-0.7,0.8c0,0,0,0,0,0
			c-0.6-0.8-1.5-1-2.4-1.1c-4.3-0.2-8.5-0.2-12.8,0c-0.9,0-1.7,0.3-2.3,1c-0.1-0.2-0.4-0.4-0.7-0.6c-2-0.7-4-0.3-6-0.4
			c-1.1-0.1-2.9,0.5-3.1-1.1c-0.3-1.7,0.8-3.2,2.5-4c1-0.5,2.2-0.4,3.3-0.4c4.9,0,9.9,0,14.8,0c2,0,4.1,0.3,6-0.6
			c0.1-0.2,0.2-0.3,0.3-0.5c11.2,0,22.3,0,33.5,0c1.5,0,3.1,0.3,4.6,0.1c5.1-0.9,8.3,1,9.6,5.9c-0.1,0-0.1,0.1-0.2,0.1
			c-0.2,0.3-0.3,0.7-0.4,1.1c-0.2-0.1-0.4-0.2-0.6-0.3C225.3,244.3,219.7,244.3,214.1,245z"/>
	</g>
	<path class="st0" d="M184.7,245.7c-5.9,0-11.7,0-17.6,0c-3.2,0-6.5-0.1-9.7-0.1c-1.8,0-2.1-0.7-1.6-2.3c1.2-4.2,2.4-6.2,6.8-6.2
		c7.2,0,60.2,0,62.9,0.1c4.7,0.1,6.8,2.3,6.8,7.1c0,0.4-0.1,0.9-0.1,1.3c-6.3,0-12.6,0.1-19,0.1
		C203.6,245.7,194.1,245.7,184.7,245.7z"/>
	<path class="st0" d="M134.6,219.9c5.6,0,11.3,0,16.9,0c14,0,27.9,0,41.9,0c6.5,0,13.1,0,19.6,0c8.3,0,16.7,0,25,0
		c9.9,0,19.8,0,29.7,0c7.2,0,14.4,0,21.6,0c7.7,0,15.3,0,23,0c6-0.9,8.8,4.1,12.7,6.8c1.2,2,3.5,3.1,4.6,6.1c-2.6,0-4.9,0-7.2,0
		c-6.1,0-12.2,0-18.3,0c-8.3,0-16.7,0-25,0c-6.1,0-12.2,0-18.3,0c-7,0-14,0-21,0c0,0-82,0-96,0c-5.6,0-11.3,0-16.9,0
		c-4.5,0-9,0-13.5,0c-7,0-14,0-21,0c-5.6,0-11.3,0-16.9,0c-5.2,0-10.4,0-15.6,0c-0.7-0.4-2,0.4-2.3-0.6c-0.3-0.8,0.6-1.4,1.2-1.9
		c3.2-3.1,6.2-6.4,9.5-9.3c0.9-0.8,2.5-0.7,3.8-1.1c9.2,0,18.5,0,27.7,0C111.7,219.9,123.2,219.9,134.6,219.9z"/>
</g>
</svg>
