<svg xmlns="http://www.w3.org/2000/svg" xmlns:xlink="http://www.w3.org/1999/xlink" style="margin: auto; display: block; --darkreader-inline-bgimage: initial; --darkreader-inline-bgcolor:#1f2223;" width="200px" height="200px" viewBox="0 0 100 100" preserveAspectRatio="xMidYMid" data-darkreader-inline-bgimage="" data-darkreader-inline-bgcolor="">
    <defs>
        <path id="path" d="M50 15A15 35 0 0 1 50 85A15 35 0 0 1 50 15" fill="none" data-darkreader-inline-fill="" style="--darkreader-inline-fill:none;"></path>
        <path id="patha" d="M0 0A15 35 0 0 1 0 70A15 35 0 0 1 0 0" fill="none" data-darkreader-inline-fill="" style="--darkreader-inline-fill:none;"></path>
    </defs><g transform="rotate(0 50 50)">
    <use xlink:href="#path" stroke="#1b2967" stroke-width="3" data-darkreader-inline-stroke="" style="--darkreader-inline-stroke:#99b9e4;"></use>
    </g><g transform="rotate(60 50 50)">
    <use xlink:href="#path" stroke="#1b2967" stroke-width="3" data-darkreader-inline-stroke="" style="--darkreader-inline-stroke:#99b9e4;"></use>
    </g><g transform="rotate(120 50 50)">
    <use xlink:href="#path" stroke="#1b2967" stroke-width="3" data-darkreader-inline-stroke="" style="--darkreader-inline-stroke:#99b9e4;"></use>
    </g><g transform="rotate(0 50 50)">
    <circle cx="50" cy="15" r="9" fill="#1a21b8" data-darkreader-inline-fill="" style="--darkreader-inline-fill:#151a93;">
        <animateMotion dur="1s" repeatCount="indefinite" begin="0s">
        <mpath xlink:href="#patha"></mpath>
        </animateMotion>
    </circle>
    </g><g transform="rotate(60 50 50)">
    <circle cx="50" cy="15" r="9" fill="#1d93f0" data-darkreader-inline-fill="" style="--darkreader-inline-fill:#0c6cb7;">
        <animateMotion dur="1s" repeatCount="indefinite" begin="-0.16666666666666666s">
        <mpath xlink:href="#patha"></mpath>
        </animateMotion>
    </circle>
    </g><g transform="rotate(120 50 50)">
    <circle cx="50" cy="15" r="9" fill="#5727bd" data-darkreader-inline-fill="" style="--darkreader-inline-fill:#461f97;">
        <animateMotion dur="1s" repeatCount="indefinite" begin="-0.3333333333333333s">
        <mpath xlink:href="#patha"></mpath>
        </animateMotion>
    </circle>
    </g>
</svg>
